<?xml version="1.0" encoding="UTF-8"?>
<svg width="80px" height="80px" viewBox="0 0 80 80" version="1.1" xmlns="http://www.w3.org/2000/svg" xmlns:xlink="http://www.w3.org/1999/xlink">
    <title>write</title>
    <defs>
        <filter x="-57.5%" y="-57.5%" width="215.0%" height="215.0%" filterUnits="objectBoundingBox" id="filter-1">
            <feOffset dx="3" dy="7" in="SourceAlpha" result="shadowOffsetOuter1"></feOffset>
            <feGaussianBlur stdDeviation="5" in="shadowOffsetOuter1" result="shadowBlurOuter1"></feGaussianBlur>
            <feColorMatrix values="0 0 0 0 0   0 0 0 0 0   0 0 0 0 0  0 0 0 0.5 0" type="matrix" in="shadowBlurOuter1" result="shadowMatrixOuter1"></feColorMatrix>
            <feMerge>
                <feMergeNode in="shadowMatrixOuter1"></feMergeNode>
                <feMergeNode in="SourceGraphic"></feMergeNode>
            </feMerge>
        </filter>
    </defs>
    <g id="Page-1" stroke="none" stroke-width="1" fill="none" fill-rule="evenodd">
        <g id="Dashboard" transform="translate(-179.000000, -731.000000)">
            <g id="write" transform="translate(186.000000, 734.000000)" filter="url(#filter-1)">
                <g id="flat-2126884">
                    <circle id="Oval" stroke="#6D7885" stroke-width="0.2" cx="30" cy="30" r="30"></circle>
                    <path d="M17.7846479,12.1348315 C16.1598591,12.1348315 14.8314607,13.4467258 14.8314607,15.0544914 L14.8314607,44.9455086 C14.8314607,46.5532742 16.1597284,47.8651685 17.7846479,47.8651685 L38.8469179,47.8651685 C40.4717067,47.8651685 41.7974914,46.5532742 41.7974914,44.9455086 L41.7974914,43.6221053 L41.1951186,43.869626 L40.6055136,44.1120904 L40.6055136,44.9455604 C40.6055136,45.9204614 39.8321152,46.6857439 38.8469049,46.6857439 L17.7846348,46.6857439 C16.7994245,46.6857439 16.0234124,45.9204614 16.0234124,44.9455604 L16.0234124,15.0545431 C16.0234124,14.079642 16.799333,13.3143596 17.7846348,13.3143596 L38.8469049,13.3143596 C39.8321544,13.3143596 40.6055136,14.079642 40.6055136,15.0545431 L40.6055136,36.6823719 L41.7974914,35.429639 L41.7974914,15.0548664 C41.7974914,13.4471008 40.4717067,12.1352065 38.8469179,12.1352065 L17.7846479,12.1352065 L17.7846479,12.1348315 Z M41.7977528,37.3188056 L40.7257425,38.4452501 L41.7977528,39.4428846 L41.7977528,37.3187668 L41.7977528,37.3188056 Z M40.605775,40.859821 L40.605775,42.7161288 L40.6951102,42.6807743 L41.4123408,42.3827435 L41.7977528,42.2261567 L41.7977528,41.9710582 L40.605775,40.8597693 L40.605775,40.859821 Z" id="Shape" fill-opacity="0.98" fill="#555555" fill-rule="nonzero"></path>
                    <path d="M19.41234,17.5886292 C19.0975132,17.617373 18.8609422,17.9021151 18.8771939,18.2327432 C18.8934456,18.5633713 19.1566836,18.8211508 19.4726635,18.8158652 L36.455126,18.8158652 C36.6731298,18.8301552 36.8806718,18.7164258 36.9938031,18.5206794 C37.1069345,18.324933 37.1069345,18.0795614 36.9938031,17.883815 C36.8806718,17.6880686 36.6731298,17.5743392 36.455126,17.5886292 L19.4726635,17.5886292 C19.452569,17.5875459 19.4324346,17.5875459 19.41234,17.5886292 L19.41234,17.5886292 Z" id="Path" fill="#555555"></path>
                    <path d="M19.4648412,21.6322921 C19.1398566,21.6322921 18.8764045,21.9075917 18.8764045,22.247191 C18.8764045,22.5867903 19.1398566,22.8620899 19.4648412,22.8620899 L36.490215,22.8620899 C36.8151996,22.8620899 37.0786517,22.5867903 37.0786517,22.247191 C37.0786517,21.9075917 36.8151996,21.6322921 36.490215,21.6322921 L19.4648412,21.6322921 L19.4648412,21.6322921 Z" id="Path" fill="#555555"></path>
                    <path d="M19.4648412,25.677236 C19.1398566,25.677236 18.8764045,25.9525356 18.8764045,26.2921348 C18.8764045,26.6317341 19.1398566,26.9070337 19.4648412,26.9070337 L36.490215,26.9070337 C36.8151996,26.9070337 37.0786517,26.6317341 37.0786517,26.2921348 C37.0786517,25.9525356 36.8151996,25.677236 36.490215,25.677236 L19.4648412,25.677236 L19.4648412,25.677236 Z" id="Path" fill="#555555"></path>
                    <path d="M19.4648412,29.0480225 C19.1398566,29.0480225 18.8764045,29.3233221 18.8764045,29.6629213 C18.8764045,30.0025206 19.1398566,30.2778202 19.4648412,30.2778202 L36.490215,30.2778202 C36.8151996,30.2778202 37.0786517,30.0025206 37.0786517,29.6629213 C37.0786517,29.3233221 36.8151996,29.0480225 36.490215,29.0480225 L19.4648412,29.0480225 L19.4648412,29.0480225 Z" id="Path" fill="#555555"></path>
                    <path d="M19.4648412,33.0929663 C19.1398566,33.0929663 18.8764045,33.3682659 18.8764045,33.7078652 C18.8764045,34.0474644 19.1398566,34.322764 19.4648412,34.322764 L36.490215,34.322764 C36.8151996,34.322764 37.0786517,34.0474644 37.0786517,33.7078652 C37.0786517,33.3682659 36.8151996,33.0929663 36.490215,33.0929663 L19.4648412,33.0929663 L19.4648412,33.0929663 Z" id="Path" fill="#555555"></path>
                    <path d="M19.4648412,37.1379101 C19.1398566,37.1379101 18.8764045,37.4132097 18.8764045,37.752809 C18.8764045,38.0924083 19.1398566,38.3677079 19.4648412,38.3677079 L36.490215,38.3677079 C36.8151996,38.3677079 37.0786517,38.0924083 37.0786517,37.752809 C37.0786517,37.4132097 36.8151996,37.1379101 36.490215,37.1379101 L19.4648412,37.1379101 L19.4648412,37.1379101 Z" id="Path" fill="#555555"></path>
                    <path d="M19.4648412,41.1828539 C19.1398566,41.1828539 18.8764045,41.4581535 18.8764045,41.7977528 C18.8764045,42.1373521 19.1398566,42.4126517 19.4648412,42.4126517 L36.490215,42.4126517 C36.8151996,42.4126517 37.0786517,42.1373521 37.0786517,41.7977528 C37.0786517,41.4581535 36.8151996,41.1828539 36.490215,41.1828539 L19.4648412,41.1828539 L19.4648412,41.1828539 Z" id="Path" fill="#555555"></path>
                    <g id="Group" transform="translate(44.675601, 37.651950) rotate(13.263580) translate(-44.675601, -37.651950) translate(38.945264, 28.887905)" fill="#555555" fill-rule="nonzero">
                        <path d="M7.29069313,0.0367355422 C7.15899622,0.0459456674 7.03446273,0.118563962 6.9632089,0.241982264 L6.70030049,0.697083152 L11.0874426,3.23012998 L11.350351,2.77502909 C11.4643663,2.57754932 11.3971573,2.32657996 11.1996828,2.21256858 L7.52534141,0.0913534214 C7.45128649,0.0485984983 7.36963519,0.0312488265 7.29061441,0.0367735897 L7.29069313,0.0367355422 Z M6.42663382,1.1711422 L0.895835555,10.7509844 L5.28297768,13.2837688 L10.8137759,3.70418903 L6.42663382,1.1711422 Z M0.622155766,11.2249779 L0.361556454,11.6762478 C0.247541139,11.8737275 0.314748813,12.1244345 0.512224656,12.238459 L4.18656606,14.3596742 C4.38404584,14.4736895 4.6347528,14.4064805 4.74877729,14.2090059 L5.00937661,13.7577623 L0.622234485,11.2249779 L0.622155766,11.2249779 Z" id="Shape"></path>
                        <path d="M0.131198365,17.1423783 C-0.00802933993,17.0619866 0.041802423,16.6639898 0.041802423,16.6639898 L0.120316772,15.8947344 L0.198857362,15.1254396 L0.277373023,14.3562236 L0.355901804,13.5869683 L0.434416154,12.8177129 L0.512956743,12.0484575 L0.591472404,11.2792021 L1.13988157,11.5958232 L1.68829073,11.9124442 L2.2366999,12.2290652 L2.78510906,12.5456862 L3.33351823,12.8623072 L3.88192739,13.1789282 L4.43033656,13.4955492 L4.97874572,13.8121703 L4.35182746,14.2648046 L3.72488295,14.717439 L3.09796469,15.1700733 L2.4710333,15.6227077 L1.84411503,16.075342 L1.21717053,16.5279764 L0.59025226,16.9806108 C0.59025226,16.9806108 0.270469365,17.2227767 0.13124166,17.1423783 L0.131198365,17.1423783 Z" id="Path"></path>
                    </g>
                    <path d="M47.8515775,29.6678667 C47.7232646,29.6474749 47.5895258,29.6903743 47.4933485,29.7923338 L47.1376031,30.1682073 L50.7696955,33.5884373 L51.1254409,33.2125637 C51.2793424,33.0489188 51.2715474,32.7939947 51.1080293,32.6400359 L48.0655342,29.7749752 C48.0042054,29.717623 47.9285856,29.6806881 47.8515902,29.6679432 L47.8515775,29.6678667 Z M46.7669427,30.5615032 L39.3013854,38.4996841 L42.9358978,41.9199141 L50.4014551,33.9817331 L46.7669427,30.5615032 Z M38.9331578,38.8905712 L38.9331578,38.8931202 L38.8908708,38.9379314 L38.5823926,39.2665085 C38.4343883,39.4238829 38.4391265,39.6638445 38.58494,39.819116 L38.3933878,40.3767068 L38.1446208,41.0960944 L37.8958538,41.8179801 L37.6470868,42.5373678 L37.3958233,43.2567555 L37.1470563,43.9786412 C37.1470563,43.9786412 37.0093817,44.3482443 37.1246646,44.4565762 C37.2399475,44.5655454 37.6023034,44.4042965 37.6023034,44.4042965 L38.3063301,44.1130493 L39.0078605,43.8193168 L39.7118745,43.5280697 L40.4159013,43.2368225 L41.1174316,42.94309 L41.6622327,42.7165743 C41.8260055,42.8535569 42.0662005,42.8447501 42.2144978,42.6867002 L42.5204795,42.3606084 L42.5254469,42.3580594 L42.5652502,42.3132482 L38.9331578,38.8905712 L38.9331578,38.8905712 Z" id="Shape" fill="#555555" fill-rule="nonzero"></path>
                </g>
            </g>
        </g>
    </g>
</svg>